<svg width="148" height="45" viewBox="0 0 148 45" fill="none" xmlns="http://www.w3.org/2000/svg">
<path d="M128.647 45V20.91H133.317L134.697 23.5998V45H128.647ZM140.399 38.5563C138.154 38.5563 136.193 38.0735 134.515 37.108C132.847 36.1325 132.013 35.0192 132.013 33.7679L134.697 31.3293C134.697 32.2949 135.051 33.0732 135.759 33.6644C136.476 34.2457 137.31 34.5364 138.261 34.5364C139.302 34.5364 140.095 34.2309 140.641 33.6201C141.187 32.9994 141.46 31.6791 141.46 29.6593C141.46 27.6789 141.187 26.3783 140.641 25.7576C140.095 25.127 139.302 24.8117 138.261 24.8117C137.31 24.8117 136.476 25.1122 135.759 25.7132C135.051 26.3044 134.697 27.068 134.697 28.004L132.013 25.5802C132.013 24.3289 132.847 23.2156 134.515 22.2401C136.193 21.2647 138.154 20.777 140.399 20.777C142.966 20.777 144.801 21.5849 145.903 23.2008C147.015 24.8166 147.571 26.9596 147.571 29.6297C147.571 32.2998 147.015 34.4576 145.903 36.103C144.801 37.7385 142.966 38.5563 140.399 38.5563Z" fill="white"/>
<path d="M108.209 45V20.91H112.692L114.017 23.5998V45H108.209ZM119.49 38.5563C117.336 38.5563 115.453 38.0735 113.842 37.108C112.241 36.1325 111.44 35.0192 111.44 33.7679L114.017 31.3293C114.017 32.2949 114.357 33.0732 115.036 33.6644C115.725 34.2457 116.526 34.5364 117.438 34.5364C118.437 34.5364 119.199 34.2309 119.723 33.6201C120.247 32.9994 120.509 31.6791 120.509 29.6593C120.509 27.6789 120.247 26.3783 119.723 25.7576C119.199 25.127 118.437 24.8117 117.438 24.8117C116.526 24.8117 115.725 25.1122 115.036 25.7132C114.357 26.3044 114.017 27.068 114.017 28.004L111.44 25.5802C111.44 24.3289 112.241 23.2156 113.842 22.2401C115.453 21.2647 117.336 20.777 119.49 20.777C121.955 20.777 123.717 21.5849 124.775 23.2008C125.842 24.8166 126.376 26.9596 126.376 29.6297C126.376 32.2998 125.842 34.4576 124.775 36.103C123.717 37.7385 121.955 38.5563 119.49 38.5563Z" fill="white"/>
<path d="M94.132 38.9443C93.4332 38.9443 92.7393 38.9043 92.0503 38.8242C91.3613 38.7442 90.7111 38.5942 90.0997 38.3742C89.498 38.1442 88.9642 37.8241 88.4984 37.4141C88.0423 37.004 87.6783 36.469 87.4066 35.8089C87.1446 35.1388 87.0135 34.3237 87.0135 33.3636C87.0135 32.4535 87.1446 31.6784 87.4066 31.0383C87.6686 30.3982 88.0228 29.8781 88.4693 29.4781C88.9254 29.078 89.4494 28.768 90.0414 28.548C90.6431 28.3279 91.2788 28.1779 91.9484 28.0979C92.618 28.0079 93.2974 27.9629 93.9864 27.9629H99.3434V27.4378C99.3434 26.7377 99.2027 26.1977 98.9212 25.8176C98.6398 25.4276 98.2565 25.1576 97.7712 25.0075C97.2957 24.8475 96.7668 24.7675 96.1845 24.7675C95.6605 24.7675 95.1752 24.8425 94.7288 24.9925C94.2824 25.1425 93.8991 25.3976 93.5788 25.7576C93.2585 26.1077 93.0353 26.5827 92.9092 27.1828L87.2319 25.5326C87.4066 24.6825 87.7511 23.9574 88.2655 23.3573C88.7798 22.7473 89.4252 22.2522 90.2016 21.8721C90.9876 21.4921 91.8853 21.2171 92.8946 21.047C93.9039 20.867 94.9957 20.777 96.17 20.777C98.0333 20.777 99.6345 20.992 100.974 21.4221C102.323 21.8521 103.361 22.5722 104.089 23.5824C104.817 24.5925 105.181 25.9827 105.181 27.7529V38.7342H100.348L99.8383 36.799C99.7122 37.069 99.4841 37.3341 99.1542 37.5941C98.8242 37.8541 98.4069 38.0842 97.9023 38.2842C97.3976 38.4842 96.825 38.6442 96.1845 38.7642C95.5537 38.8843 94.8695 38.9443 94.132 38.9443ZM95.4567 35.2088C95.8546 35.2088 96.2622 35.1738 96.6795 35.1038C97.1065 35.0238 97.5092 34.9138 97.8877 34.7737C98.2662 34.6237 98.5864 34.4437 98.8485 34.2337C99.1105 34.0237 99.2706 33.7836 99.3288 33.5136L99.4744 31.2333H95.3548C95.0151 31.2333 94.6948 31.2583 94.394 31.3083C94.0931 31.3483 93.8311 31.4383 93.6079 31.5783C93.3847 31.7084 93.21 31.9034 93.0839 32.1634C92.9674 32.4235 92.9092 32.7685 92.9092 33.1985C92.9092 33.6286 92.982 33.9786 93.1275 34.2487C93.2731 34.5087 93.4672 34.7087 93.7098 34.8488C93.9524 34.9888 94.2242 35.0838 94.525 35.1338C94.8356 35.1838 95.1461 35.2088 95.4567 35.2088Z" fill="white"/>
<path d="M56.7347 38.1873V20.9081H61.3086L62.6556 23.3849V38.1873H56.7347ZM67.4367 38.1873V28.8192C67.4367 27.2749 67.269 26.2113 66.9335 25.6286C66.598 25.0458 66.0601 24.7544 65.32 24.7544C64.5207 24.7544 63.8694 25.0944 63.3661 25.7743C62.8629 26.4542 62.6112 27.5323 62.6112 29.0086L59.4732 27.8431C59.4732 26.2211 60.2577 24.6379 61.8267 23.0935C63.4056 21.5492 65.2361 20.777 67.3183 20.777C69.7459 20.777 71.3544 21.5395 72.1439 23.0644C72.9432 24.5893 73.3428 26.3425 73.3428 28.3239V38.1873H67.4367ZM78.0795 38.1873V28.8192C78.0795 27.2749 77.9216 26.2113 77.6059 25.6286C77.2901 25.0458 76.7621 24.7544 76.022 24.7544C75.2227 24.7544 74.5714 25.0944 74.0681 25.7743C73.5649 26.4542 73.3132 27.5323 73.3132 29.0086L70.1752 27.8431C70.1752 26.2793 70.9597 24.7107 72.5287 23.1372C74.1076 21.5637 75.9382 20.777 78.0203 20.777C80.4479 20.777 82.0465 21.5395 82.8162 23.0644C83.5958 24.5893 83.9856 26.3425 83.9856 28.3239V38.1873H78.0795Z" fill="white"/>
<path d="M47.6511 38.1873V20.8893H53.7069V38.1873H47.6511ZM47.6511 15.4782H53.7069V19.2995H47.6511V15.4782Z" fill="white"/>
<path d="M38.5675 38.1873V14.7213H44.6233V38.1873H38.5675Z" fill="white"/>
<path d="M26.6448 38.1873C22.7277 38.1873 20.0744 37.2922 18.6847 35.502C17.3052 33.7018 16.6154 31.1806 16.6154 27.9384C16.6154 24.706 17.3052 22.1998 18.6847 20.4195C20.0744 18.6392 22.7277 17.7491 26.6448 17.7491C30.5821 17.7491 33.175 18.6044 34.4236 20.3151C35.6723 22.0158 36.2966 23.9601 36.2966 26.1482H30.1189C30.1189 24.3182 29.8117 23.1446 29.1975 22.6274C28.5832 22.1003 27.7172 21.8367 26.5995 21.8367C25.4616 21.8367 24.5403 22.1451 23.8354 22.7617C23.1406 23.3783 22.7932 25.1039 22.7932 27.9384C22.7932 30.8027 23.1406 32.5481 23.8354 33.1747C24.5403 33.8013 25.4616 34.1146 26.5995 34.1146C27.7072 34.1146 28.5681 33.846 29.1824 33.309C29.8067 32.762 30.1189 31.5934 30.1189 29.8032H36.2966C36.2966 31.9216 35.6723 33.851 34.4236 35.5915C33.175 37.322 30.5821 38.1873 26.6448 38.1873Z" fill="white"/>
<path fill-rule="evenodd" clip-rule="evenodd" d="M32.9106 1.916C33.7433 2.22445 34.1934 3.22462 33.9158 4.14996L31.7966 11.2144C31.5191 12.1397 30.619 12.6398 29.7862 12.3313C28.9535 12.0229 28.5034 11.0227 28.781 10.0974L30.9002 3.03298C31.1778 2.10764 32.0779 1.60755 32.9106 1.916Z" fill="white"/>
<path fill-rule="evenodd" clip-rule="evenodd" d="M2.28974 16.6929C2.57615 15.7412 3.50489 15.2268 4.36413 15.5441L10.9239 17.966C11.7832 18.2832 12.2475 19.3119 11.9611 20.2636C11.6747 21.2153 10.746 21.7296 9.88674 21.4124L3.32694 18.9905C2.4677 18.6733 2.00333 17.6446 2.28974 16.6929Z" fill="white"/>
<path fill-rule="evenodd" clip-rule="evenodd" d="M0.883402 26.4513C0.885334 25.5005 1.65769 24.7313 2.6085 24.7332L9.86738 24.748C10.8182 24.7499 11.5874 25.5222 11.5855 26.473C11.5835 27.4239 10.8112 28.1931 9.86038 28.1911L2.6015 28.1764C1.65069 28.1745 0.881469 27.4021 0.883402 26.4513Z" fill="white"/>
<path fill-rule="evenodd" clip-rule="evenodd" d="M20.316 0.665739C21.2475 0.47512 22.1572 1.07573 22.3478 2.00724L23.8031 9.11876C23.9937 10.0503 23.3931 10.9599 22.4616 11.1506C21.5301 11.3412 20.6204 10.7406 20.4298 9.80906L18.9745 2.69753C18.7839 1.76602 19.3845 0.856358 20.316 0.665739Z" fill="white"/>
<path fill-rule="evenodd" clip-rule="evenodd" d="M8.17811 6.86438C8.85559 6.19724 9.94561 6.20563 10.6127 6.8831L15.7059 12.0552C16.3731 12.7327 16.3647 13.8227 15.6872 14.4899C15.0097 15.157 13.9197 15.1486 13.2526 14.4712L8.15939 9.29901C7.49225 8.62154 7.50063 7.53151 8.17811 6.86438Z" fill="white"/>
</svg>
